<svg xmlns="http://www.w3.org/2000/svg" width="35" height="35" viewBox="0 0 35 35" fill="none">
<g clip-path="url(#clip0_56_4970)">
<path d="M15.5597 15.6645C15.3426 15.8014 15.0887 15.8845 14.8355 15.9228C14.6603 15.9493 14.4624 15.9412 14.3086 15.8536C13.7816 15.5526 13.3621 15.0853 12.8367 14.7813C12.2038 14.4163 11.5495 14.0667 10.8496 13.8563C9.86861 13.5619 8.82725 13.5214 7.83226 13.2771C6.86155 13.0386 5.89525 12.7685 4.96208 12.4109C4.53817 12.2482 4.14592 11.9995 3.78457 11.7242C3.51963 11.5219 3.30179 11.2591 3.10235 10.992C2.96988 10.8154 2.87053 10.6122 2.7984 10.4032C2.71598 10.1662 2.61147 9.91603 2.64386 9.66728C2.71377 9.13519 3.10603 8.6583 3.09573 8.1218C3.08689 7.69495 2.73438 7.34611 2.5894 6.94429C2.46797 6.6087 2.33476 6.26869 2.2987 5.91397C2.23541 5.30387 2.23393 4.68421 2.29355 4.07411C2.33034 3.6951 2.45987 3.33007 2.58351 2.97019C2.68801 2.66551 2.81754 2.36819 2.97429 2.08706C3.29222 1.51818 3.63149 0.95886 4.00535 0.424565C4.14886 0.220709 4.34904 0.0624799 4.52051 -0.119298C4.54921 -0.095012 4.57792 -0.071461 4.60588 -0.0471749C4.49549 0.1243 4.35934 0.282528 4.27471 0.467986C4.03405 0.996393 3.79855 1.53069 3.6337 2.08706C3.4637 2.66331 3.343 3.25648 3.27309 3.85333C3.21863 4.31623 3.1833 4.79239 3.26278 5.25162C3.35625 5.79033 3.61089 6.28783 3.78457 6.80667C3.82063 6.16566 3.78236 5.51582 3.89201 4.88365C3.97591 4.3994 4.15548 3.93207 4.36008 3.48535C4.52861 3.11738 4.74424 2.76634 5.00255 2.45503C5.3904 1.98697 5.83123 1.56381 6.28678 1.16125C6.65401 0.836694 7.05289 0.545996 7.46429 0.280321C7.57247 0.210406 7.70935 0.201575 7.83226 0.16257C7.3171 0.719679 6.75631 1.23852 6.28678 1.83463C6.01521 2.17905 5.79443 2.56763 5.61854 2.97019C5.37126 3.53981 5.16667 4.13151 5.0239 4.73646C4.91645 5.19274 4.88922 5.66595 4.87303 6.13475C4.86788 6.26428 4.93264 6.38718 4.96208 6.51376C5.03126 6.51008 5.10706 6.53142 5.16961 6.50272C5.72525 6.24882 6.38907 6.1215 6.80194 5.67184C7.37082 5.0507 7.55775 4.1661 7.97945 3.43752C8.17226 3.10414 8.39967 2.79062 8.6418 2.49183L8.66114 2.46795C8.99698 2.05334 9.33529 1.63567 9.73099 1.27752C10.3131 0.751324 10.9313 0.260449 11.5856 -0.172286C11.9477 -0.412204 12.3708 -0.543936 12.7631 -0.729394C12.3708 -0.404107 11.9535 -0.106786 11.587 0.247203C11.1175 0.702016 10.6737 1.18479 10.2609 1.69186C9.9113 2.12165 9.58748 2.57499 9.30414 3.05115C8.90968 3.71497 8.58954 4.42 8.23261 5.10443C8.27088 5.13828 8.29664 5.2082 8.34742 5.20673C9.25704 5.16772 10.16 4.99036 11.0704 4.98373C11.4995 4.98079 11.919 5.11326 12.3436 5.17802C11.8947 5.21924 11.4399 5.21997 10.9968 5.30166C10.2771 5.43487 9.56835 5.62621 8.86258 5.82124C8.53729 5.91102 8.16564 5.93899 7.90585 6.15536C7.68314 6.34095 7.59575 6.65467 7.51768 6.93492L7.51507 6.94429C7.36788 7.47196 7.29796 8.0195 7.2332 8.56336C7.20376 8.80696 7.2148 9.05497 7.2332 9.29931C7.24571 9.47299 7.27147 9.64888 7.32593 9.81447C7.39879 10.036 7.49004 10.2546 7.61147 10.454C7.73438 10.6564 7.88672 10.8426 8.05304 11.0111C8.23482 11.1958 8.43573 11.3636 8.65136 11.5071C8.9531 11.7088 9.27176 11.8854 9.59852 12.0429C10.0055 12.2387 10.4228 12.4153 10.8496 12.5632C11.063 12.6375 11.2868 12.6898 11.512 12.706C11.757 12.7244 12.0028 12.6788 12.2479 12.6655C12.3451 12.5242 12.4658 12.3976 12.5386 12.2431C12.5813 12.1533 12.6019 12.0473 12.5879 11.9487C12.4452 10.8897 12.1515 9.84979 12.0713 8.78415C12.0227 8.14682 12.1 7.5014 12.2052 6.87069C12.2803 6.41514 12.4429 5.97652 12.6093 5.546C12.7285 5.2369 12.9081 4.95503 13.0575 4.65992C12.9706 5.323 12.8492 5.98315 12.7969 6.64991C12.7837 6.82212 12.8109 6.99948 12.861 7.16507C12.9 7.29313 12.953 7.43222 13.0575 7.51538C13.1568 7.59413 13.3025 7.58088 13.4254 7.61326C13.8177 7.35642 14.196 7.07602 14.6029 6.84199C14.7987 6.72939 15.018 6.66463 15.2255 6.57632C14.6993 7.09368 14.1349 7.57499 13.6462 8.12842C13.5005 8.29254 13.4078 8.50228 13.3386 8.71055C13.2687 8.9225 13.2348 9.14917 13.2341 9.3729C13.2333 9.74234 13.2525 10.1162 13.3342 10.4768C13.4321 10.9073 13.591 11.3239 13.7691 11.7279C13.9597 12.1607 14.1945 12.5735 14.4381 12.979C14.9017 13.7518 15.4058 14.5002 15.8894 15.2605C15.779 15.3951 15.7069 15.5718 15.5597 15.6645Z" fill="#B83A31"/>
<path d="M24.023 14.6275C23.3518 15.011 22.7734 15.5445 22.0993 15.9228C21.9734 15.9934 21.8108 15.9662 21.668 15.9478C21.4906 15.925 21.3169 15.8705 21.1528 15.8014C21.0204 15.7447 20.8879 15.6748 20.7849 15.5732C20.6988 15.4886 20.6634 15.365 20.6031 15.2605C21.1116 14.4752 21.6467 13.7061 22.1294 12.9054C22.3568 12.5279 22.5658 12.1356 22.7336 11.7279C22.9294 11.2503 23.1134 10.7616 23.2172 10.256C23.2915 9.89542 23.2922 9.51935 23.2613 9.15212C23.2422 8.92324 23.1642 8.69878 23.0685 8.48977C22.975 8.28444 22.8529 8.08647 22.6983 7.92162C22.2354 7.42707 21.7173 6.98844 21.2264 6.52112C21.4229 6.60502 21.6327 6.66169 21.8152 6.77208C22.2244 7.02156 22.571 7.36819 22.9927 7.5956C23.1436 7.67655 23.3298 7.65227 23.499 7.68023C23.5542 7.55733 23.633 7.44252 23.6661 7.31226C23.7154 7.12018 23.7566 6.92074 23.7441 6.7235C23.7014 6.05748 23.5829 5.39881 23.502 4.73646C23.5285 4.76148 23.5689 4.77841 23.5814 4.81226C23.7971 5.39513 24.0267 5.97505 24.1834 6.57632C24.3019 7.03334 24.366 7.50434 24.4042 7.97461C24.4425 8.43899 24.4646 8.90926 24.4138 9.3729C24.3189 10.2391 24.0804 11.0847 23.9693 11.9487C23.9472 12.1194 23.9465 12.3064 24.0164 12.4639C24.0708 12.5868 24.1857 12.7045 24.3174 12.7332C24.5816 12.7891 24.8598 12.7391 25.1269 12.7001C25.4022 12.6604 25.6811 12.6074 25.9365 12.497C26.5929 12.2144 27.231 11.8869 27.8499 11.5292C28.0935 11.3879 28.3114 11.2039 28.5123 11.0074C28.6823 10.8404 28.8243 10.6461 28.9538 10.4466C29.0525 10.2958 29.1363 10.1324 29.1938 9.96166C29.2659 9.7475 29.3159 9.52377 29.3395 9.29931C29.3652 9.05497 29.3704 8.80696 29.3402 8.56336C29.271 7.99448 29.1834 7.42559 29.0414 6.87069C28.9796 6.62857 28.8361 6.41514 28.733 6.187C27.9184 5.94856 27.1169 5.65933 26.289 5.4724C25.6222 5.32227 24.9363 5.2759 24.26 5.17802C24.9172 5.11694 25.5707 4.99477 26.2308 4.99477C26.9322 4.99477 27.6284 5.11694 28.3275 5.17802C28.1252 4.68715 27.9736 4.17272 27.7204 3.70614C27.3716 3.06439 26.9646 2.45283 26.5289 1.86628C26.2205 1.45194 25.8673 1.07072 25.4949 0.713054C24.9569 0.196422 24.3667 -0.262805 23.8022 -0.75C24.0179 -0.663159 24.2497 -0.6087 24.4491 -0.488741C24.9157 -0.206875 25.3654 0.105901 25.7893 0.44885C26.367 0.91691 26.9425 1.39527 27.4481 1.93987C27.9316 2.46092 28.3695 3.0298 28.7463 3.63254C29.1444 4.26987 29.2541 5.09192 29.7634 5.64535C30.1534 6.06852 30.7841 6.17891 31.3089 6.41514C31.4001 6.45636 31.5053 6.45489 31.6032 6.47476C31.654 6.36142 31.7401 6.25765 31.7563 6.13475C31.7902 5.87643 31.7799 5.61223 31.7504 5.35318C31.7077 4.97196 31.6408 4.59148 31.5407 4.2213C31.4509 3.89307 31.3398 3.56631 31.1823 3.26457C30.8916 2.70452 30.5817 2.14814 30.1998 1.64549C29.7862 1.10016 29.271 0.63946 28.8066 0.136811C29.3689 0.492272 29.9775 0.784441 30.4942 1.20393C30.9416 1.56601 31.3317 2.00169 31.6768 2.46239C31.9977 2.89071 32.259 3.3654 32.479 3.85333C32.6365 4.2029 32.7528 4.57676 32.8013 4.95724C32.8786 5.55262 32.8367 6.15756 32.8543 6.75736C32.9294 6.64844 33.0339 6.5535 33.0803 6.42913C33.187 6.14432 33.2694 5.84773 33.3069 5.546C33.3761 4.98521 33.4674 4.41411 33.3997 3.85333C33.3172 3.17184 33.0957 2.5117 32.8624 1.86628C32.6144 1.18259 32.2619 0.54158 31.9616 -0.120769C31.9896 -0.125185 32.0168 -0.130337 32.0448 -0.134752C32.3635 0.224388 32.7071 0.562923 33.0015 0.94267C33.2069 1.20761 33.3857 1.49463 33.5388 1.79268C33.7846 2.27031 34.0208 2.75677 34.1967 3.26457C34.3284 3.64432 34.3976 4.04467 34.4572 4.44208C34.494 4.68494 34.5095 4.93369 34.4845 5.17802C34.4462 5.55115 34.3844 5.92501 34.2696 6.28194C34.051 6.95901 33.7485 7.60664 33.488 8.26899C33.6234 8.48977 33.7949 8.69215 33.8957 8.93134C33.9737 9.11606 34.0237 9.31991 34.0164 9.52009C34.0046 9.82036 33.934 10.1184 33.8383 10.4032C33.7676 10.6144 33.6602 10.8161 33.5226 10.992C33.304 11.2724 33.067 11.5476 32.7807 11.7581C32.4201 12.0238 32.0183 12.2372 31.6032 12.4057C30.8607 12.7075 30.1004 12.9761 29.3218 13.1637C28.5012 13.3617 27.6468 13.3889 26.8196 13.5597C26.3942 13.6473 25.9777 13.7805 25.5714 13.9358C25.0438 14.1374 24.5139 14.3464 24.023 14.6275Z" fill="#B83A31"/>
<path d="M14.0657 18.9402C13.9229 19.0138 13.7956 19.1359 13.6374 19.1609C13.3732 19.2029 13.0979 19.1896 12.8367 19.1359C12.4326 19.0513 12.0389 18.9122 11.6592 18.7503C11.325 18.6075 11.0071 18.425 10.7024 18.227C10.4243 18.046 10.1623 17.8377 9.91498 17.6155C9.68757 17.4116 9.47194 17.193 9.2828 16.9531C9.04509 16.6514 8.82136 16.3349 8.63885 15.9964C8.47621 15.6932 8.33711 15.373 8.25175 15.0397C8.16049 14.6805 8.15975 14.3037 8.11339 13.9358C9.54112 14.47 10.9865 14.9572 12.3951 15.5379C12.9066 15.7484 13.4181 15.9824 13.867 16.3062C14.0223 16.4188 14.0569 16.6396 14.1525 16.8059C14.0819 16.8942 14.0333 17.0061 13.9406 17.0716C13.8567 17.1312 13.7426 17.1997 13.6462 17.1636C13.2525 17.0194 12.9213 16.739 12.5423 16.5579C12.4039 16.4924 12.2479 16.4703 12.1007 16.4269C12.061 16.4549 12.022 16.4836 11.9822 16.5116C12.2935 16.683 12.6365 16.8081 12.9176 17.0267C12.9993 17.0907 12.9875 17.2232 13.0221 17.3211L12.8367 17.5595C13.1311 17.5183 13.4254 17.4764 13.7198 17.4352L13.7198 17.4353C13.7441 17.5199 13.7684 17.6045 13.7919 17.6891C13.7419 17.7384 13.7014 17.7995 13.6418 17.8363C13.5277 17.9069 13.4078 17.9753 13.2782 18.0092C13.1833 18.0335 13.0795 18.0298 12.9839 18.007C12.7278 17.9466 12.4827 17.8443 12.2325 17.7627C12.3348 17.7133 12.4378 17.6648 12.5401 17.6155C12.3693 17.6074 12.1971 17.5713 12.0271 17.5904C11.9661 17.5971 11.9234 17.6559 11.8719 17.6891C11.997 17.7928 12.1066 17.9194 12.2479 18.0004C12.3833 18.0776 12.5342 18.1373 12.6895 18.1564C13.0906 18.2057 13.4968 18.188 13.9001 18.2042L14.0657 18.9402Z" fill="#B83A31"/>
<path d="M24.391 19.0373C24.1827 19.1249 23.9627 19.1852 23.7426 19.2345C23.5689 19.2736 23.3908 19.3045 23.2135 19.3C23.0148 19.2956 22.8212 19.239 22.6247 19.2081C22.5717 19.119 22.4665 19.0439 22.4665 18.9402C22.4665 18.6907 22.5717 18.4515 22.6247 18.2079C22.8948 18.2315 23.1649 18.3065 23.4343 18.2793C23.6653 18.255 23.8847 18.1542 24.0959 18.057C24.3159 17.9562 24.5132 17.812 24.7222 17.6891C24.5867 17.6721 24.4521 17.6552 24.3174 17.6375C24.2776 17.7038 24.2578 17.7877 24.1982 17.8363C24.129 17.8929 24.0385 17.926 23.9494 17.9393C23.6815 17.9783 23.41 18.0004 23.1399 17.9901C23.0368 17.9856 22.9434 17.9268 22.8455 17.8951C22.7962 17.7685 22.7476 17.6412 22.6983 17.5139C22.7476 17.4815 22.7866 17.4146 22.8455 17.4175C23.1678 17.43 23.4836 17.5102 23.8022 17.5573C23.7147 17.4786 23.6263 17.3998 23.5388 17.3211C23.5527 17.263 23.5424 17.193 23.5814 17.1474C23.7095 16.9987 23.8537 16.8567 24.023 16.7581C24.2232 16.6411 24.4557 16.594 24.6721 16.5116C24.5536 16.5012 24.4351 16.4645 24.3174 16.4806C24.1157 16.5093 23.9134 16.5609 23.7286 16.6462C23.3953 16.8008 23.0906 17.012 22.7719 17.1952C22.6519 17.09 22.5313 16.9848 22.4113 16.8795C22.4739 16.7566 22.4974 16.6043 22.599 16.5116C22.9206 16.2186 23.2856 15.9751 23.655 15.7454C24.0076 15.5261 24.3682 15.309 24.759 15.1692C25.4044 14.9388 26.0954 14.8572 26.746 14.643C27.153 14.509 27.5217 14.2772 27.9235 14.1293C28.0641 14.0771 28.2179 14.0726 28.3651 14.0439C28.3459 14.278 28.3533 14.5149 28.3084 14.7453C28.2459 15.0698 28.1598 15.3914 28.0449 15.702C27.9404 15.9831 27.8102 16.2562 27.6542 16.5116C27.4739 16.8067 27.2854 17.1033 27.0404 17.3476C26.6592 17.7281 26.2434 18.0806 25.7893 18.3705C25.3536 18.648 24.8664 18.8364 24.391 19.0373Z" fill="#B83A31"/>
<path d="M20.0489 26.0244C19.9672 26.0869 19.8671 26.1274 19.767 26.1524C19.6191 26.1899 19.4646 26.1899 19.313 26.2091C19.2291 26.1164 19.1452 26.0244 19.0613 25.9316C19.0723 25.8823 19.0598 25.8212 19.0937 25.7844C19.3167 25.5453 19.5757 25.3429 19.8171 25.1221C19.7796 24.9506 19.7958 24.7571 19.7045 24.6069C19.6405 24.5017 19.5095 24.4237 19.3866 24.4171C18.6094 24.3736 17.8234 24.3633 17.0507 24.4597C16.8932 24.4796 16.8005 24.6562 16.6754 24.7541C16.6731 24.852 16.6459 24.9528 16.6687 25.0485C16.6938 25.1552 16.7394 25.2649 16.8159 25.3429C16.9859 25.5151 17.2339 25.6012 17.3922 25.7844C17.4577 25.8602 17.4326 25.9809 17.4525 26.0788C17.3613 26.12 17.2774 26.1863 17.1787 26.2017C17.0573 26.2216 16.9293 26.2157 16.8108 26.1826C16.6893 26.1487 16.5709 26.0884 16.4767 26.0052C16.3869 25.9265 16.3243 25.819 16.2743 25.7108C16.2198 25.5953 16.1683 25.4709 16.1661 25.3429C16.1639 25.1442 16.1786 24.9352 16.2618 24.7541C16.5421 24.1418 17.0264 23.6252 17.2442 22.9879C17.3473 22.6854 17.2597 22.3432 17.192 22.0311C17.1191 21.6977 16.9896 21.3754 16.8292 21.0744C16.6857 20.8058 16.4185 20.6137 16.289 20.3385C16.1933 20.1353 16.2404 19.8895 16.1712 19.6761C16.0947 19.4421 16.0005 19.2058 15.854 19.0079C15.7414 18.8555 15.5825 18.7348 15.4125 18.6517C15.0776 18.4883 14.7096 18.4022 14.3586 18.2778C14.313 17.5912 14.2364 16.9053 14.2217 16.2172C14.2202 16.1524 14.2799 16.1009 14.3086 16.0428C14.6272 16.056 14.9577 16.1679 15.2653 16.0825C15.6708 15.9692 15.9887 15.649 16.3692 15.468C16.5068 15.4025 16.6592 15.3657 16.8108 15.3473C16.9329 15.3326 17.061 15.3333 17.1787 15.3686C17.5563 15.4827 17.8889 15.7866 18.2827 15.7925C18.605 15.797 18.8626 15.5085 19.1658 15.3981C19.2828 15.3554 19.4094 15.3274 19.5338 15.3363C19.7339 15.3502 19.9385 15.3848 20.1225 15.4658C20.4993 15.6314 20.8033 15.9596 21.1999 16.07C21.5517 16.1679 21.9293 16.07 22.2943 16.07L22.293 16.0819C22.2125 16.8139 22.1319 17.5459 22.0522 18.2778C21.682 18.4493 21.2949 18.5884 20.9424 18.793C20.7944 18.8783 20.6546 18.9946 20.5641 19.1396C20.4198 19.3707 20.3293 19.6349 20.2535 19.8969C20.1983 20.0868 20.2579 20.3061 20.174 20.4856C20.057 20.7373 19.7972 20.9015 19.6692 21.148C19.4889 21.4968 19.3365 21.867 19.2585 22.2519C19.2048 22.5169 19.182 22.8105 19.2821 23.0615C19.4852 23.5693 19.8797 23.9792 20.1402 24.4597C20.227 24.6194 20.3021 24.7939 20.3197 24.9749C20.3462 25.2376 20.3359 25.5099 20.2697 25.7653C20.241 25.8757 20.1387 25.9552 20.0489 26.0244Z" fill="#B83A31"/>
<path d="M16.1867 24.0918C16.0653 24.3479 16.0152 24.6312 15.9291 24.9013H15.7863C15.5825 24.6562 15.3565 24.4274 15.1755 24.1654C14.9834 23.8857 14.8134 23.5899 14.6692 23.2822C14.5132 22.9496 14.3733 22.6066 14.2784 22.2519C14.1489 21.7699 14.0915 21.2709 13.998 20.78C14.0525 20.7749 14.1121 20.7418 14.1614 20.7653C14.6405 20.9949 15.1122 21.2429 15.5597 21.5292C15.6627 21.5947 15.7392 21.7014 15.7952 21.8103C15.9129 22.0378 15.9814 22.288 16.0748 22.5264C16.1271 22.3123 16.2272 22.104 16.2308 21.8839C16.2338 21.6823 16.1779 21.4784 16.094 21.2952C15.9512 20.9824 15.7378 20.7072 15.5597 20.4135C15.2896 20.4628 15.0246 20.5688 14.7501 20.5607C14.5912 20.5563 14.4101 20.5004 14.3086 20.3775C14.0892 20.1118 13.995 19.763 13.8383 19.4553C13.8721 19.4134 13.8876 19.3413 13.9406 19.3295C14.2298 19.264 14.5286 19.2066 14.8237 19.2331C14.9643 19.2456 15.0997 19.3346 15.1917 19.4413C15.5722 19.8836 15.9056 20.3664 16.222 20.8566C16.4325 21.1826 16.6121 21.5292 16.7696 21.8839C16.8409 22.0466 16.8925 22.2217 16.9035 22.3991C16.916 22.5963 16.916 22.8061 16.8387 22.9879C16.6724 23.3816 16.3699 23.7061 16.1867 24.0918Z" fill="#B83A31"/>
<path d="M21.2676 24.3126C21.1101 24.5341 20.9129 24.7276 20.7039 24.9013C20.6671 24.9322 20.6075 24.9013 20.5597 24.9013C20.4382 24.5606 20.3565 24.2036 20.1961 23.8791C20.0511 23.5854 19.7935 23.3566 19.6515 23.0615C19.5867 22.9275 19.5801 22.7678 19.5912 22.6199C19.6059 22.419 19.6567 22.2195 19.7288 22.0311C19.8929 21.6035 20.0658 21.1752 20.2984 20.78C20.5435 20.3627 20.8143 19.9521 21.1528 19.6062C21.3302 19.4259 21.5657 19.2772 21.8152 19.2331C22.1066 19.1808 22.4039 19.2986 22.6983 19.331L22.727 19.4553C22.6534 19.5289 22.5489 19.5812 22.507 19.6761C22.4371 19.8336 22.4613 20.0198 22.4039 20.1824C22.3767 20.2597 22.3252 20.334 22.2568 20.3789C22.1471 20.4511 22.0198 20.5173 21.8888 20.5202C21.5922 20.5254 21.3 20.4422 21.0056 20.4032C20.8724 20.5291 20.7216 20.638 20.606 20.78C20.5376 20.8647 20.492 20.9692 20.461 21.0744C20.397 21.2908 20.3418 21.5123 20.3227 21.7368C20.3021 21.9855 20.3367 22.2357 20.3433 22.4859C20.422 22.285 20.4618 22.0642 20.5795 21.8839C20.6951 21.7088 20.857 21.5631 21.0292 21.4424C21.3707 21.2032 21.7379 21.0008 22.1096 20.8117C22.1993 20.766 22.3061 20.7646 22.4039 20.7418C22.4216 20.7786 22.4599 20.8124 22.4569 20.8536C22.4282 21.2724 22.4069 21.6963 22.3105 22.1047C22.2207 22.4867 22.0698 22.8539 21.902 23.2086C21.721 23.5921 21.5127 23.9659 21.2676 24.3126Z" fill="#B83A31"/>
<path d="M18.7066 36.6028C18.6896 36.6661 18.6205 36.7007 18.5778 36.75C18.4578 36.4313 18.3643 36.1009 18.2186 35.7933C18.1178 35.5813 17.9956 35.376 17.8411 35.1986C16.9594 34.1874 15.9998 33.2469 15.1181 32.235C14.9091 31.9958 14.7332 31.7272 14.575 31.4512C14.4278 31.1936 14.2924 30.925 14.2063 30.6417C14.0745 30.2097 13.987 29.7637 13.9237 29.317C13.8964 29.1227 13.9067 28.9225 13.9354 28.7282C13.9619 28.5457 14.037 28.3742 14.0878 28.1969C14.1614 28.545 14.1923 28.9056 14.3086 29.2426C14.4153 29.551 14.5706 29.8439 14.7501 30.1169C14.9282 30.3878 15.1461 30.6328 15.3757 30.8624C15.6627 31.1502 15.974 31.4151 16.2956 31.6639C16.3582 31.7117 16.4443 31.7184 16.5179 31.7456C16.1786 31.2061 15.7863 30.6961 15.5001 30.1265C15.2167 29.5628 14.9584 28.9755 14.8164 28.3602C14.6 27.4197 14.5882 26.4424 14.4307 25.4901C14.3159 24.7975 14.1275 24.1197 14.0002 23.4294C13.9649 23.2351 13.9376 23.0379 13.9421 22.8407C13.9428 22.8002 13.9899 22.7766 14.0142 22.7443C14.2107 23.1564 14.3726 23.5862 14.6029 23.9799C14.7523 24.2345 14.9481 24.4612 15.1461 24.6805C15.3418 24.8969 15.6377 25.0279 15.7804 25.2818C15.9262 25.5408 15.91 25.8625 15.974 26.1524C16.1057 26.2032 16.2301 26.2797 16.3692 26.3055C16.7092 26.3673 17.0551 26.438 17.3995 26.4129C17.5187 26.4048 17.6107 26.2952 17.6939 26.2098C17.7469 26.1546 17.7844 26.0803 17.7955 26.0052C17.8065 25.9316 17.8072 25.8396 17.7572 25.7844C17.5916 25.6012 17.3554 25.4945 17.1787 25.3223C17.1007 25.2465 17.061 25.1398 17.0014 25.0485L17.1051 24.7578C17.203 24.7291 17.2972 24.6665 17.3995 24.6717C17.6733 24.6857 17.9353 24.813 18.2091 24.8152C18.5792 24.8174 18.945 24.7276 19.313 24.6842C19.3777 24.8549 19.4425 25.0249 19.5065 25.1957C19.3071 25.3429 19.0664 25.4466 18.9082 25.6373C18.8096 25.7557 18.8177 25.9316 18.7728 26.0788C18.8795 26.1701 18.9686 26.2856 19.0922 26.3519C19.2041 26.4115 19.3336 26.4556 19.4602 26.4483C19.7832 26.4313 20.0982 26.3364 20.4169 26.2805C20.5207 26.1149 20.6781 25.9736 20.7275 25.7844C20.7812 25.5776 20.6119 25.3333 20.7113 25.1442C20.8953 24.7939 21.2831 24.593 21.5208 24.2765C21.8741 23.8062 22.1589 23.2881 22.4775 22.7936C22.6681 23.4228 22.8058 24.0704 23.0501 24.6805C23.4453 25.6689 23.9443 26.6131 24.391 27.5794C24.497 27.3491 24.639 27.132 24.7082 26.8884C24.837 26.4335 24.8892 25.9596 24.9797 25.496C25.0371 25.5431 25.1129 25.574 25.1527 25.6373C25.2233 25.7491 25.28 25.875 25.3013 26.0052C25.3573 26.3452 25.3963 26.6911 25.3823 27.0355C25.3676 27.4072 25.3323 27.7862 25.2152 28.1395C25.0482 28.6458 24.8377 29.1477 24.5382 29.5893C23.9178 30.5055 23.1075 31.2812 22.4724 32.1871C21.9035 32.9982 21.4457 33.882 20.9321 34.7298C20.9276 34.3236 20.8827 33.9166 20.9188 33.5118C20.9475 33.1866 21.0123 32.8613 21.1241 32.5551C21.3184 32.023 21.5951 31.5248 21.8314 31.0096C21.5804 31.251 21.289 31.4556 21.0792 31.7331C20.4677 32.5397 19.8811 33.3705 19.3763 34.2478C19.1547 34.6334 19.0355 35.0713 18.9141 35.4989C18.8111 35.8588 18.8037 36.2415 18.7066 36.6028Z" fill="#B83A31"/>
</g>
<defs>
<clipPath id="clip0_56_4970">
<rect width="35" height="35" fill="white"/>
</clipPath>
</defs>
</svg>
