<svg width="190" height="60" viewBox="0 0 190 60" fill="none" xmlns="http://www.w3.org/2000/svg">
<path d="M27.5597 27.6645C27.3426 27.8014 27.0887 27.8845 26.8355 27.9228C26.6603 27.9493 26.4624 27.9412 26.3086 27.8536C25.7816 27.5526 25.3621 27.0853 24.8367 26.7813C24.2038 26.4163 23.5495 26.0667 22.8496 25.8563C21.8686 25.5619 20.8273 25.5214 19.8323 25.2771C18.8615 25.0386 17.8953 24.7685 16.9621 24.4109C16.5382 24.2482 16.1459 23.9995 15.7846 23.7242C15.5196 23.5219 15.3018 23.2591 15.1023 22.992C14.9699 22.8154 14.8705 22.6122 14.7984 22.4032C14.716 22.1662 14.6115 21.916 14.6439 21.6673C14.7138 21.1352 15.106 20.6583 15.0957 20.1218C15.0869 19.695 14.7344 19.3461 14.5894 18.9443C14.468 18.6087 14.3348 18.2687 14.2987 17.914C14.2354 17.3039 14.2339 16.6842 14.2935 16.0741C14.3303 15.6951 14.4599 15.3301 14.5835 14.9702C14.688 14.6655 14.8175 14.3682 14.9743 14.0871C15.2922 13.5182 15.6315 12.9589 16.0054 12.4246C16.1489 12.2207 16.349 12.0625 16.5205 11.8807C16.5492 11.905 16.5779 11.9285 16.6059 11.9528C16.4955 12.1243 16.3593 12.2825 16.2747 12.468C16.0341 12.9964 15.7986 13.5307 15.6337 14.0871C15.4637 14.6633 15.343 15.2565 15.2731 15.8533C15.2186 16.3162 15.1833 16.7924 15.2628 17.2516C15.3562 17.7903 15.6109 18.2878 15.7846 18.8067C15.8206 18.1657 15.7824 17.5158 15.892 16.8836C15.9759 16.3994 16.1555 15.9321 16.3601 15.4854C16.5286 15.1174 16.7442 14.7663 17.0026 14.455C17.3904 13.987 17.8312 13.5638 18.2868 13.1612C18.654 12.8367 19.0529 12.546 19.4643 12.2803C19.5725 12.2104 19.7094 12.2016 19.8323 12.1626C19.3171 12.7197 18.7563 13.2385 18.2868 13.8346C18.0152 14.1791 17.7944 14.5676 17.6185 14.9702C17.3713 15.5398 17.1667 16.1315 17.0239 16.7365C16.9164 17.1927 16.8892 17.666 16.873 18.1348C16.8679 18.2643 16.9326 18.3872 16.9621 18.5138C17.0313 18.5101 17.1071 18.5314 17.1696 18.5027C17.7253 18.2488 18.3891 18.1215 18.8019 17.6718C19.3708 17.0507 19.5578 16.1661 19.9794 15.4375C20.1723 15.1041 20.3997 14.7906 20.6418 14.4918L20.6611 14.4679C20.997 14.0533 21.3353 13.6357 21.731 13.2775C22.3131 12.7513 22.9313 12.2604 23.5856 11.8277C23.9477 11.5878 24.3708 11.4561 24.7631 11.2706C24.3708 11.5959 23.9535 11.8932 23.587 12.2472C23.1175 12.702 22.6737 13.1848 22.2609 13.6919C21.9113 14.1217 21.5875 14.575 21.3041 15.0511C20.9097 15.715 20.5895 16.42 20.2326 17.1044C20.2709 17.1383 20.2966 17.2082 20.3474 17.2067C21.257 17.1677 22.16 16.9904 23.0704 16.9837C23.4995 16.9808 23.919 17.1133 24.3436 17.178C23.8947 17.2192 23.4399 17.22 22.9968 17.3017C22.2771 17.4349 21.5683 17.6262 20.8626 17.8212C20.5373 17.911 20.1656 17.939 19.9059 18.1554C19.6831 18.341 19.5957 18.6547 19.5177 18.9349L19.5151 18.9443C19.3679 19.472 19.298 20.0195 19.2332 20.5634C19.2038 20.807 19.2148 21.055 19.2332 21.2993C19.2457 21.473 19.2715 21.6489 19.3259 21.8145C19.3988 22.036 19.49 22.2546 19.6115 22.454C19.7344 22.6564 19.8867 22.8426 20.053 23.0111C20.2348 23.1958 20.4357 23.3636 20.6514 23.5071C20.9531 23.7088 21.2718 23.8854 21.5985 24.0429C22.0055 24.2387 22.4228 24.4153 22.8496 24.5632C23.063 24.6375 23.2868 24.6898 23.512 24.706C23.757 24.7244 24.0028 24.6788 24.2479 24.6655C24.3451 24.5242 24.4658 24.3976 24.5386 24.2431C24.5813 24.1533 24.6019 24.0473 24.5879 23.9487C24.4452 22.8897 24.1515 21.8498 24.0713 20.7841C24.0227 20.1468 24.1 19.5014 24.2052 18.8707C24.2803 18.4151 24.4429 17.9765 24.6093 17.546C24.7285 17.2369 24.9081 16.955 25.0575 16.6599C24.9706 17.323 24.8492 17.9831 24.7969 18.6499C24.7837 18.8221 24.8109 18.9995 24.861 19.1651C24.9 19.2931 24.953 19.4322 25.0575 19.5154C25.1568 19.5941 25.3025 19.5809 25.4254 19.6133C25.8177 19.3564 26.196 19.076 26.6029 18.842C26.7987 18.7294 27.018 18.6646 27.2255 18.5763C26.6993 19.0937 26.1349 19.575 25.6462 20.1284C25.5005 20.2925 25.4078 20.5023 25.3386 20.7106C25.2687 20.9225 25.2348 21.1492 25.2341 21.3729C25.2333 21.7423 25.2525 22.1162 25.3342 22.4768C25.4321 22.9073 25.591 23.3239 25.7691 23.7279C25.9597 24.1607 26.1945 24.5735 26.4381 24.979C26.9017 25.7518 27.4058 26.5002 27.8894 27.2605C27.779 27.3951 27.7069 27.5718 27.5597 27.6645Z" fill="#B83A31"/>
<path d="M36.023 26.6275C35.3518 27.011 34.7734 27.5445 34.0993 27.9228C33.9734 27.9934 33.8108 27.9662 33.668 27.9478C33.4906 27.925 33.3169 27.8705 33.1528 27.8014C33.0204 27.7447 32.8879 27.6748 32.7849 27.5732C32.6988 27.4886 32.6634 27.365 32.6031 27.2605C33.1116 26.4752 33.6467 25.7061 34.1294 24.9054C34.3568 24.5279 34.5658 24.1356 34.7336 23.7279C34.9294 23.2503 35.1134 22.7616 35.2172 22.256C35.2915 21.8954 35.2922 21.5194 35.2613 21.1521C35.2422 20.9232 35.1642 20.6988 35.0685 20.4898C34.975 20.2844 34.8529 20.0865 34.6983 19.9216C34.2354 19.4271 33.7173 18.9884 33.2264 18.5211C33.4229 18.605 33.6327 18.6617 33.8152 18.7721C34.2244 19.0216 34.571 19.3682 34.9927 19.5956C35.1436 19.6766 35.3298 19.6523 35.499 19.6802C35.5542 19.5573 35.633 19.4425 35.6661 19.3123C35.7154 19.1202 35.7566 18.9207 35.7441 18.7235C35.7014 18.0575 35.5829 17.3988 35.502 16.7365C35.5285 16.7615 35.5689 16.7784 35.5814 16.8123C35.7971 17.3951 36.0267 17.9751 36.1834 18.5763C36.3019 19.0333 36.366 19.5043 36.4042 19.9746C36.4425 20.439 36.4646 20.9093 36.4138 21.3729C36.3189 22.2391 36.0804 23.0847 35.9693 23.9487C35.9472 24.1194 35.9465 24.3064 36.0164 24.4639C36.0708 24.5868 36.1857 24.7045 36.3174 24.7332C36.5816 24.7891 36.8598 24.7391 37.1269 24.7001C37.4022 24.6604 37.6811 24.6074 37.9365 24.497C38.5929 24.2144 39.231 23.8869 39.8499 23.5292C40.0935 23.3879 40.3114 23.2039 40.5123 23.0074C40.6823 22.8404 40.8243 22.6461 40.9538 22.4466C41.0525 22.2958 41.1363 22.1324 41.1938 21.9617C41.2659 21.7475 41.3159 21.5238 41.3395 21.2993C41.3652 21.055 41.3704 20.807 41.3402 20.5634C41.271 19.9945 41.1834 19.4256 41.0414 18.8707C40.9796 18.6286 40.8361 18.4151 40.733 18.187C39.9184 17.9486 39.1169 17.6593 38.289 17.4724C37.6222 17.3223 36.9363 17.2759 36.26 17.178C36.9172 17.1169 37.5707 16.9948 38.2308 16.9948C38.9322 16.9948 39.6284 17.1169 40.3275 17.178C40.1252 16.6871 39.9736 16.1727 39.7204 15.7061C39.3716 15.0644 38.9646 14.4528 38.5289 13.8663C38.2205 13.4519 37.8673 13.0707 37.4949 12.7131C36.9569 12.1964 36.3667 11.7372 35.8022 11.25C36.0179 11.3368 36.2497 11.3913 36.4491 11.5113C36.9157 11.7931 37.3654 12.1059 37.7893 12.4489C38.367 12.9169 38.9425 13.3953 39.4481 13.9399C39.9316 14.4609 40.3695 15.0298 40.7463 15.6325C41.1444 16.2699 41.2541 17.0919 41.7634 17.6453C42.1534 18.0685 42.7841 18.1789 43.3089 18.4151C43.4001 18.4564 43.5053 18.4549 43.6032 18.4748C43.654 18.3614 43.7401 18.2577 43.7563 18.1348C43.7902 17.8764 43.7799 17.6122 43.7504 17.3532C43.7077 16.972 43.6408 16.5915 43.5407 16.2213C43.4509 15.8931 43.3398 15.5663 43.1823 15.2646C42.8916 14.7045 42.5817 14.1481 42.1998 13.6455C41.7862 13.1002 41.271 12.6395 40.8066 12.1368C41.3689 12.4923 41.9775 12.7844 42.4942 13.2039C42.9416 13.566 43.3317 14.0017 43.6768 14.4624C43.9977 14.8907 44.259 15.3654 44.479 15.8533C44.6365 16.2029 44.7528 16.5768 44.8013 16.9572C44.8786 17.5526 44.8367 18.1576 44.8543 18.7574C44.9294 18.6484 45.0339 18.5535 45.0803 18.4291C45.187 18.1443 45.2694 17.8477 45.3069 17.546C45.3761 16.9852 45.4674 16.4141 45.3997 15.8533C45.3172 15.1718 45.0957 14.5117 44.8624 13.8663C44.6144 13.1826 44.2619 12.5416 43.9616 11.8792C43.9896 11.8748 44.0168 11.8697 44.0448 11.8652C44.3635 12.2244 44.7071 12.5629 45.0015 12.9427C45.2069 13.2076 45.3857 13.4946 45.5388 13.7927C45.7846 14.2703 46.0208 14.7568 46.1967 15.2646C46.3284 15.6443 46.3976 16.0447 46.4572 16.4421C46.494 16.6849 46.5095 16.9337 46.4845 17.178C46.4462 17.5511 46.3844 17.925 46.2696 18.2819C46.051 18.959 45.7485 19.6066 45.488 20.269C45.6234 20.4898 45.7949 20.6922 45.8957 20.9313C45.9737 21.1161 46.0237 21.3199 46.0164 21.5201C46.0046 21.8204 45.934 22.1184 45.8383 22.4032C45.7676 22.6144 45.6602 22.8161 45.5226 22.992C45.304 23.2724 45.067 23.5476 44.7807 23.7581C44.4201 24.0238 44.0183 24.2372 43.6032 24.4057C42.8607 24.7075 42.1004 24.9761 41.3218 25.1637C40.5012 25.3617 39.6468 25.3889 38.8196 25.5597C38.3942 25.6473 37.9777 25.7805 37.5714 25.9358C37.0438 26.1374 36.5139 26.3464 36.023 26.6275Z" fill="#B83A31"/>
<path d="M26.0657 30.9402C25.9229 31.0138 25.7956 31.1359 25.6374 31.1609C25.3732 31.2029 25.0979 31.1896 24.8367 31.1359C24.4326 31.0513 24.0389 30.9122 23.6592 30.7503C23.325 30.6075 23.0071 30.425 22.7024 30.227C22.4243 30.046 22.1623 29.8377 21.915 29.6155C21.6876 29.4116 21.4719 29.193 21.2828 28.9531C21.0451 28.6514 20.8214 28.3349 20.6389 27.9964C20.4762 27.6932 20.3371 27.373 20.2517 27.0397C20.1605 26.6805 20.1598 26.3037 20.1134 25.9358C21.5411 26.47 22.9865 26.9572 24.3951 27.5379C24.9066 27.7484 25.4181 27.9824 25.867 28.3062C26.0223 28.4188 26.0569 28.6396 26.1525 28.8059C26.0819 28.8942 26.0333 29.0061 25.9406 29.0716C25.8567 29.1312 25.7426 29.1997 25.6462 29.1636C25.2525 29.0194 24.9213 28.739 24.5423 28.5579C24.4039 28.4924 24.2479 28.4703 24.1007 28.4269C24.061 28.4549 24.022 28.4836 23.9822 28.5116C24.2935 28.683 24.6365 28.8081 24.9176 29.0267C24.9993 29.0907 24.9875 29.2232 25.0221 29.3211L24.8367 29.5595C25.1311 29.5183 25.4254 29.4764 25.7198 29.4352L25.7198 29.4353C25.7441 29.5199 25.7684 29.6045 25.7919 29.6891C25.7419 29.7384 25.7014 29.7995 25.6418 29.8363C25.5277 29.9069 25.4078 29.9753 25.2782 30.0092C25.1833 30.0335 25.0795 30.0298 24.9839 30.007C24.7278 29.9466 24.4827 29.8443 24.2325 29.7627C24.3348 29.7133 24.4378 29.6648 24.5401 29.6155C24.3693 29.6074 24.1971 29.5713 24.0271 29.5904C23.9661 29.5971 23.9234 29.6559 23.8719 29.6891C23.997 29.7928 24.1066 29.9194 24.2479 30.0004C24.3833 30.0776 24.5342 30.1373 24.6895 30.1564C25.0906 30.2057 25.4968 30.188 25.9001 30.2042L26.0657 30.9402Z" fill="#B83A31"/>
<path d="M36.391 31.0373C36.1827 31.1249 35.9627 31.1852 35.7426 31.2345C35.5689 31.2736 35.3908 31.3045 35.2135 31.3C35.0148 31.2956 34.8212 31.239 34.6247 31.2081C34.5717 31.119 34.4665 31.0439 34.4665 30.9402C34.4665 30.6907 34.5717 30.4515 34.6247 30.2079C34.8948 30.2315 35.1649 30.3065 35.4343 30.2793C35.6653 30.255 35.8847 30.1542 36.0959 30.057C36.3159 29.9562 36.5132 29.812 36.7222 29.6891C36.5867 29.6721 36.4521 29.6552 36.3174 29.6375C36.2776 29.7038 36.2578 29.7877 36.1982 29.8363C36.129 29.8929 36.0385 29.926 35.9494 29.9393C35.6815 29.9783 35.41 30.0004 35.1399 29.9901C35.0368 29.9856 34.9434 29.9268 34.8455 29.8951C34.7962 29.7685 34.7476 29.6412 34.6983 29.5139C34.7476 29.4815 34.7866 29.4146 34.8455 29.4175C35.1678 29.43 35.4836 29.5102 35.8022 29.5573C35.7147 29.4786 35.6263 29.3998 35.5388 29.3211C35.5527 29.263 35.5424 29.193 35.5814 29.1474C35.7095 28.9987 35.8537 28.8567 36.023 28.7581C36.2232 28.6411 36.4557 28.594 36.6721 28.5116C36.5536 28.5012 36.4351 28.4645 36.3174 28.4806C36.1157 28.5093 35.9134 28.5609 35.7286 28.6462C35.3953 28.8008 35.0906 29.012 34.7719 29.1952C34.6519 29.09 34.5313 28.9848 34.4113 28.8795C34.4739 28.7566 34.4974 28.6043 34.599 28.5116C34.9206 28.2186 35.2856 27.9751 35.655 27.7454C36.0076 27.5261 36.3682 27.309 36.759 27.1692C37.4044 26.9388 38.0954 26.8572 38.746 26.643C39.153 26.509 39.5217 26.2772 39.9235 26.1293C40.0641 26.0771 40.2179 26.0726 40.3651 26.0439C40.3459 26.278 40.3533 26.5149 40.3084 26.7453C40.2459 27.0698 40.1598 27.3914 40.0449 27.702C39.9404 27.9831 39.8102 28.2562 39.6542 28.5116C39.4739 28.8067 39.2854 29.1033 39.0404 29.3476C38.6592 29.7281 38.2434 30.0806 37.7893 30.3705C37.3536 30.648 36.8664 30.8364 36.391 31.0373Z" fill="#B83A31"/>
<path d="M32.0489 38.0244C31.9672 38.0869 31.8671 38.1274 31.767 38.1524C31.6191 38.1899 31.4646 38.1899 31.313 38.2091C31.2291 38.1164 31.1452 38.0244 31.0613 37.9316C31.0723 37.8823 31.0598 37.8212 31.0937 37.7844C31.3167 37.5453 31.5757 37.3429 31.8171 37.1221C31.7796 36.9506 31.7958 36.7571 31.7045 36.6069C31.6405 36.5017 31.5095 36.4237 31.3866 36.4171C30.6094 36.3736 29.8234 36.3633 29.0507 36.4597C28.8932 36.4796 28.8005 36.6562 28.6754 36.7541C28.6731 36.852 28.6459 36.9528 28.6687 37.0485C28.6938 37.1552 28.7394 37.2649 28.8159 37.3429C28.9859 37.5151 29.2339 37.6012 29.3922 37.7844C29.4577 37.8602 29.4326 37.9809 29.4525 38.0788C29.3613 38.12 29.2774 38.1863 29.1787 38.2017C29.0573 38.2216 28.9293 38.2157 28.8108 38.1826C28.6893 38.1487 28.5709 38.0884 28.4767 38.0052C28.3869 37.9265 28.3243 37.819 28.2743 37.7108C28.2198 37.5953 28.1683 37.4709 28.1661 37.3429C28.1639 37.1442 28.1786 36.9352 28.2618 36.7541C28.5421 36.1418 29.0264 35.6252 29.2442 34.9879C29.3473 34.6854 29.2597 34.3432 29.192 34.0311C29.1191 33.6977 28.9896 33.3754 28.8292 33.0744C28.6857 32.8058 28.4185 32.6137 28.289 32.3385C28.1933 32.1353 28.2404 31.8895 28.1712 31.6761C28.0947 31.4421 28.0005 31.2058 27.854 31.0079C27.7414 30.8555 27.5825 30.7348 27.4125 30.6517C27.0776 30.4883 26.7096 30.4022 26.3586 30.2778C26.313 29.5912 26.2364 28.9053 26.2217 28.2172C26.2202 28.1524 26.2799 28.1009 26.3086 28.0428C26.6272 28.056 26.9577 28.1679 27.2653 28.0825C27.6708 27.9692 27.9887 27.649 28.3692 27.468C28.5068 27.4025 28.6592 27.3657 28.8108 27.3473C28.9329 27.3326 29.061 27.3333 29.1787 27.3686C29.5563 27.4827 29.8889 27.7866 30.2827 27.7925C30.605 27.797 30.8626 27.5085 31.1658 27.3981C31.2828 27.3554 31.4094 27.3274 31.5338 27.3363C31.7339 27.3502 31.9385 27.3848 32.1225 27.4658C32.4993 27.6314 32.8033 27.9596 33.1999 28.07C33.5517 28.1679 33.9293 28.07 34.2943 28.07L34.293 28.0819C34.2125 28.8139 34.1319 29.5459 34.0522 30.2778C33.682 30.4493 33.2949 30.5884 32.9424 30.793C32.7944 30.8783 32.6546 30.9946 32.5641 31.1396C32.4198 31.3707 32.3293 31.6349 32.2535 31.8969C32.1983 32.0868 32.2579 32.3061 32.174 32.4856C32.057 32.7373 31.7972 32.9015 31.6692 33.148C31.4889 33.4968 31.3365 33.867 31.2585 34.2519C31.2048 34.5169 31.182 34.8105 31.2821 35.0615C31.4852 35.5693 31.8797 35.9792 32.1402 36.4597C32.227 36.6194 32.3021 36.7939 32.3197 36.9749C32.3462 37.2376 32.3359 37.5099 32.2697 37.7653C32.241 37.8757 32.1387 37.9552 32.0489 38.0244Z" fill="#B83A31"/>
<path d="M28.1867 36.0918C28.0653 36.3479 28.0152 36.6312 27.9291 36.9013H27.7863C27.5825 36.6562 27.3565 36.4274 27.1755 36.1654C26.9834 35.8857 26.8134 35.5899 26.6692 35.2822C26.5132 34.9496 26.3733 34.6066 26.2784 34.2519C26.1489 33.7699 26.0915 33.2709 25.998 32.78C26.0525 32.7749 26.1121 32.7418 26.1614 32.7653C26.6405 32.9949 27.1122 33.2429 27.5597 33.5292C27.6627 33.5947 27.7392 33.7014 27.7952 33.8103C27.9129 34.0378 27.9814 34.288 28.0748 34.5264C28.1271 34.3123 28.2272 34.104 28.2308 33.8839C28.2338 33.6823 28.1779 33.4784 28.094 33.2952C27.9512 32.9824 27.7378 32.7072 27.5597 32.4135C27.2896 32.4628 27.0246 32.5688 26.7501 32.5607C26.5912 32.5563 26.4101 32.5004 26.3086 32.3775C26.0892 32.1118 25.995 31.763 25.8383 31.4553C25.8721 31.4134 25.8876 31.3413 25.9406 31.3295C26.2298 31.264 26.5286 31.2066 26.8237 31.2331C26.9643 31.2456 27.0997 31.3346 27.1917 31.4413C27.5722 31.8836 27.9056 32.3664 28.222 32.8566C28.4325 33.1826 28.6121 33.5292 28.7696 33.8839C28.8409 34.0466 28.8925 34.2217 28.9035 34.3991C28.916 34.5963 28.916 34.8061 28.8387 34.9879C28.6724 35.3816 28.3699 35.7061 28.1867 36.0918Z" fill="#B83A31"/>
<path d="M33.2676 36.3126C33.1101 36.5341 32.9129 36.7276 32.7039 36.9013C32.6671 36.9322 32.6075 36.9013 32.5597 36.9013C32.4382 36.5606 32.3565 36.2036 32.1961 35.8791C32.0511 35.5854 31.7935 35.3566 31.6515 35.0615C31.5867 34.9275 31.5801 34.7678 31.5912 34.6199C31.6059 34.419 31.6567 34.2195 31.7288 34.0311C31.8929 33.6035 32.0658 33.1752 32.2984 32.78C32.5435 32.3627 32.8143 31.9521 33.1528 31.6062C33.3302 31.4259 33.5657 31.2772 33.8152 31.2331C34.1066 31.1808 34.4039 31.2986 34.6983 31.331L34.727 31.4553C34.6534 31.5289 34.5489 31.5812 34.507 31.6761C34.4371 31.8336 34.4613 32.0198 34.4039 32.1824C34.3767 32.2597 34.3252 32.334 34.2568 32.3789C34.1471 32.4511 34.0198 32.5173 33.8888 32.5202C33.5922 32.5254 33.3 32.4422 33.0056 32.4032C32.8724 32.5291 32.7216 32.638 32.606 32.78C32.5376 32.8647 32.492 32.9692 32.461 33.0744C32.397 33.2908 32.3418 33.5123 32.3227 33.7368C32.3021 33.9855 32.3367 34.2357 32.3433 34.4859C32.422 34.285 32.4618 34.0642 32.5795 33.8839C32.6951 33.7088 32.857 33.5631 33.0292 33.4424C33.3707 33.2032 33.7379 33.0008 34.1096 32.8117C34.1993 32.766 34.3061 32.7646 34.4039 32.7418C34.4216 32.7786 34.4599 32.8124 34.4569 32.8536C34.4282 33.2724 34.4069 33.6963 34.3105 34.1047C34.2207 34.4867 34.0698 34.8539 33.902 35.2086C33.721 35.5921 33.5127 35.9659 33.2676 36.3126Z" fill="#B83A31"/>
<path d="M30.7066 48.6028C30.6896 48.6661 30.6205 48.7007 30.5778 48.75C30.4578 48.4313 30.3643 48.1009 30.2186 47.7933C30.1178 47.5813 29.9956 47.376 29.8411 47.1986C28.9594 46.1874 27.9998 45.2469 27.1181 44.235C26.9091 43.9958 26.7332 43.7272 26.575 43.4512C26.4278 43.1936 26.2924 42.925 26.2063 42.6417C26.0745 42.2097 25.987 41.7637 25.9237 41.317C25.8964 41.1227 25.9067 40.9225 25.9354 40.7282C25.9619 40.5457 26.037 40.3742 26.0878 40.1969C26.1614 40.545 26.1923 40.9056 26.3086 41.2426C26.4153 41.551 26.5706 41.8439 26.7501 42.1169C26.9282 42.3878 27.1461 42.6328 27.3757 42.8624C27.6627 43.1502 27.974 43.4151 28.2956 43.6639C28.3582 43.7117 28.4443 43.7184 28.5179 43.7456C28.1786 43.2061 27.7863 42.6961 27.5001 42.1265C27.2167 41.5628 26.9584 40.9755 26.8164 40.3602C26.6 39.4197 26.5882 38.4424 26.4307 37.4901C26.3159 36.7975 26.1275 36.1197 26.0002 35.4294C25.9649 35.2351 25.9376 35.0379 25.9421 34.8407C25.9428 34.8002 25.9899 34.7766 26.0142 34.7443C26.2107 35.1564 26.3726 35.5862 26.6029 35.9799C26.7523 36.2345 26.9481 36.4612 27.1461 36.6805C27.3418 36.8969 27.6377 37.0279 27.7804 37.2818C27.9262 37.5408 27.91 37.8625 27.974 38.1524C28.1057 38.2032 28.2301 38.2797 28.3692 38.3055C28.7092 38.3673 29.0551 38.438 29.3995 38.4129C29.5187 38.4048 29.6107 38.2952 29.6939 38.2098C29.7469 38.1546 29.7844 38.0803 29.7955 38.0052C29.8065 37.9316 29.8072 37.8396 29.7572 37.7844C29.5916 37.6012 29.3554 37.4945 29.1787 37.3223C29.1007 37.2465 29.061 37.1398 29.0014 37.0485L29.1051 36.7578C29.203 36.7291 29.2972 36.6665 29.3995 36.6717C29.6733 36.6857 29.9353 36.813 30.2091 36.8152C30.5792 36.8174 30.945 36.7276 31.313 36.6842C31.3777 36.8549 31.4425 37.0249 31.5065 37.1957C31.3071 37.3429 31.0664 37.4466 30.9082 37.6373C30.8096 37.7557 30.8177 37.9316 30.7728 38.0788C30.8795 38.1701 30.9686 38.2856 31.0922 38.3519C31.2041 38.4115 31.3336 38.4556 31.4602 38.4483C31.7832 38.4313 32.0982 38.3364 32.4169 38.2805C32.5207 38.1149 32.6781 37.9736 32.7275 37.7844C32.7812 37.5776 32.6119 37.3333 32.7113 37.1442C32.8953 36.7939 33.2831 36.593 33.5208 36.2765C33.8741 35.8062 34.1589 35.2881 34.4775 34.7936C34.6681 35.4228 34.8058 36.0704 35.0501 36.6805C35.4453 37.6689 35.9443 38.6131 36.391 39.5794C36.497 39.3491 36.639 39.132 36.7082 38.8884C36.837 38.4335 36.8892 37.9596 36.9797 37.496C37.0371 37.5431 37.1129 37.574 37.1527 37.6373C37.2233 37.7491 37.28 37.875 37.3013 38.0052C37.3573 38.3452 37.3963 38.6911 37.3823 39.0355C37.3676 39.4072 37.3323 39.7862 37.2152 40.1395C37.0482 40.6458 36.8377 41.1477 36.5382 41.5893C35.9178 42.5055 35.1075 43.2812 34.4724 44.1871C33.9035 44.9982 33.4457 45.882 32.9321 46.7298C32.9276 46.3236 32.8827 45.9166 32.9188 45.5118C32.9475 45.1866 33.0123 44.8613 33.1241 44.5551C33.3184 44.023 33.5951 43.5248 33.8314 43.0096C33.5804 43.251 33.289 43.4556 33.0792 43.7331C32.4677 44.5397 31.8811 45.3705 31.3763 46.2478C31.1547 46.6334 31.0355 47.0713 30.9141 47.4989C30.8111 47.8588 30.8037 48.2415 30.7066 48.6028Z" fill="#B83A31"/>
<path d="M67.0202 34.4201C66.551 34.6512 66.0404 34.8047 65.5247 34.8909C64.9383 34.9892 64.3363 34.9979 63.7429 34.9686C63.2772 34.9444 62.8098 34.8651 62.3631 34.734C61.9422 34.6098 61.5213 34.4476 61.1557 34.2044C60.7244 33.9181 60.3846 33.5128 60 33.1661C60.1552 32.8832 60.257 32.5641 60.4657 32.3175C60.5968 32.1622 60.8107 32.1087 60.9832 32.0035C61.6731 32.4623 62.301 33.0315 63.053 33.38C63.4204 33.5507 63.8568 33.5697 64.2604 33.5266C64.5674 33.4955 64.8296 33.2868 65.1142 33.1661C65.0487 32.9367 65.0987 32.6279 64.9141 32.4761C63.9137 31.662 62.6804 31.167 61.6731 30.3615C61.1574 29.9492 60.7141 29.4283 60.3898 28.8539C60.2191 28.5504 60.2191 28.1674 60.2415 27.819C60.2691 27.4051 60.3536 26.9842 60.5347 26.6116C60.6968 26.2753 60.9435 25.9665 61.2471 25.7492C61.63 25.4767 62.0767 25.28 62.5355 25.18C63.2117 25.0317 63.9137 24.9816 64.6054 25.0179C65.1349 25.0455 65.6661 25.1679 66.1577 25.3663C66.57 25.5336 66.9615 25.782 67.2789 26.0942C67.6273 26.4391 67.9154 26.8566 68.1206 27.3016C68.1879 27.443 68.0775 27.612 68.0551 27.7673C67.6532 27.7725 67.2185 27.9398 66.8477 27.7828C66.4665 27.6224 66.3147 27.1412 65.9852 26.8928C65.7852 26.7427 65.5351 26.6565 65.2884 26.6116C64.9503 26.5495 64.595 26.4978 64.2604 26.5737C64.0603 26.6203 63.9378 26.829 63.7757 26.9566C63.8792 27.2102 63.8792 27.5379 64.0879 27.7155C65.2177 28.6815 66.5941 29.3334 67.7101 30.3166C68.0309 30.5978 68.1913 31.0342 68.3207 31.4412C68.4259 31.7707 68.4535 32.1346 68.4018 32.4761C68.3362 32.8987 68.2189 33.3351 67.9723 33.6835C67.7394 34.0113 67.3807 34.2424 67.0202 34.4201Z" fill="#B83A31"/>
<path d="M102.552 34.22C101.886 34.4442 101.245 34.765 100.553 34.8909C99.908 35.0082 99.2335 35.041 98.585 34.9392C97.8105 34.8168 97.024 34.6132 96.3427 34.2234C95.758 33.8888 95.2785 33.3696 94.8886 32.8211C94.5609 32.364 94.3298 31.8224 94.2332 31.2687C94.0952 30.4753 94.0883 29.6508 94.2004 28.8539C94.2694 28.3624 94.4833 27.8828 94.7662 27.4741C95.1508 26.9169 95.6148 26.3943 96.1702 26.0079C96.7377 25.6112 97.4017 25.3525 98.0675 25.1679C98.6247 25.0127 99.2146 24.9972 99.7924 25.0023L99.8105 25.0026C100.384 25.0094 100.976 25.0164 101.517 25.2041C102.049 25.387 102.549 25.6992 102.947 26.0942C103.275 26.4202 103.456 26.8721 103.627 27.3016C103.677 27.4292 103.601 27.5741 103.587 27.7104C103.127 27.7259 102.668 27.7414 102.207 27.7587C101.919 27.4068 101.726 26.9497 101.345 26.7031C100.998 26.4788 100.544 26.3512 100.137 26.4202C99.6803 26.4978 99.2732 26.7996 98.93 27.1118C98.616 27.3964 98.3642 27.7673 98.2176 28.164C98.0348 28.6556 97.9692 29.192 97.9675 29.7164C97.964 30.3546 98.0382 30.9979 98.2038 31.6137C98.3056 31.9915 98.5091 32.345 98.7558 32.6486C98.9903 32.9384 99.2732 33.2195 99.6199 33.3575C99.9407 33.4852 100.31 33.3903 100.655 33.4076C100.729 33.3265 100.864 33.2747 100.876 33.1661C100.939 32.5951 100.874 32.0156 100.874 31.4412C100.539 31.3257 100.206 31.2118 99.8717 31.0963L99.9649 30.013C101.364 30.0286 102.764 30.0458 104.163 30.0613C104.179 31.6137 104.192 33.1661 104.208 34.7184C103.885 34.7495 103.551 34.903 103.242 34.8099C102.952 34.7219 102.782 34.4166 102.552 34.22Z" fill="#B83A31"/>
<path d="M156.713 34.0199C155.945 34.3631 155.172 34.734 154.346 34.8909C153.539 35.0444 152.701 35.0048 151.883 34.934C151.355 34.8892 150.833 34.7443 150.341 34.546C149.789 34.3235 149.225 34.0751 148.777 33.6835C148.347 33.3092 147.993 32.8263 147.769 32.3037C147.492 31.6534 147.34 30.941 147.298 30.2338C147.262 29.5973 147.322 28.935 147.545 28.3365C147.78 27.6983 148.176 27.1118 148.639 26.6116C149.008 26.2115 149.482 25.8975 149.986 25.6871C150.755 25.368 151.573 25.1421 152.4 25.0455C153.087 24.9661 153.796 25.0161 154.47 25.1645C155.02 25.2852 155.553 25.525 156.023 25.8372C156.381 26.0769 156.702 26.4029 156.904 26.7841C157.063 27.0825 157.006 27.4534 157.058 27.788C156.656 27.7932 156.219 27.9622 155.85 27.8035C155.359 27.5913 155.133 26.9601 154.643 26.7462C154.167 26.5392 153.599 26.4943 153.09 26.6013C152.671 26.6892 152.288 26.9756 152.011 27.3016C151.629 27.75 151.376 28.302 151.172 28.8539C151.033 29.2351 151.002 29.6543 150.998 30.0613C150.993 30.4667 150.991 30.8944 151.146 31.2687C151.381 31.8362 151.711 32.3813 152.14 32.8211C152.383 33.0712 152.754 33.1661 153.09 33.2627C153.425 33.3575 153.787 33.4697 154.125 33.3869C155.026 33.1644 155.85 32.7073 156.713 32.3675C156.928 32.6331 157.185 32.8711 157.361 33.1661C157.421 33.2696 157.389 33.4041 157.403 33.5231C157.173 33.6887 156.971 33.9043 156.713 34.0199Z" fill="#B83A31"/>
<path d="M188.277 34.2303C187.568 34.4511 186.884 34.7667 186.152 34.8909C185.49 35.003 184.802 35.0289 184.138 34.9289C183.422 34.8219 182.715 34.6046 182.068 34.282C181.602 34.0492 181.185 33.6973 180.861 33.2885C180.464 32.7918 180.109 32.2278 179.945 31.6137C179.736 30.8341 179.665 29.9992 179.767 29.1989C179.852 28.5279 180.134 27.876 180.491 27.3016C180.8 26.8031 181.238 26.377 181.723 26.0476C182.299 25.6578 182.949 25.368 183.62 25.1834C184.233 25.0144 184.883 24.9851 185.518 25.0058C186.158 25.0265 186.818 25.0713 187.415 25.3059C187.922 25.5043 188.369 25.8648 188.736 26.2667C188.995 26.5495 189.138 26.9325 189.24 27.3016C189.28 27.4413 189.173 27.5827 189.14 27.7242C188.738 27.7414 188.334 27.7604 187.932 27.7776C187.644 27.4378 187.453 26.9859 187.07 26.7582C186.665 26.5168 186.161 26.4029 185.69 26.4426C185.324 26.4736 184.992 26.7151 184.716 26.9566C184.388 27.2429 184.086 27.5896 183.92 27.9915C183.696 28.5331 183.598 29.1299 183.574 29.7164C183.55 30.2942 183.622 30.8824 183.774 31.4412C183.893 31.8742 184.091 32.2985 184.372 32.6486C184.628 32.966 184.967 33.2368 185.345 33.392C185.611 33.5041 185.925 33.4679 186.208 33.4127C186.334 33.3869 186.404 33.2489 186.503 33.1661C186.497 32.5917 186.492 32.0156 186.489 31.4412C186.158 31.3257 185.825 31.2118 185.493 31.0963C185.504 30.7513 185.512 30.4063 185.523 30.0613H189.776C189.794 31.6137 189.813 33.1661 189.83 34.7184L188.795 34.7909C188.622 34.6029 188.45 34.4166 188.277 34.2303Z" fill="#B83A31"/>
<path d="M77.0036 26.9566C76.9294 29.5422 76.9812 32.1312 76.9691 34.7184H73.3573C73.3245 32.1312 73.29 29.5439 73.2572 26.9566C73.133 26.8738 73.033 26.7255 72.8847 26.7065C72.2568 26.6254 71.6203 26.6806 70.9873 26.6668V25.3525C73.7661 25.3128 76.5448 25.2714 79.3235 25.2317C79.3649 25.5198 79.4633 25.8044 79.4512 26.0942C79.4426 26.2701 79.3287 26.4236 79.2666 26.5892C78.5767 26.6427 77.8798 26.6375 77.1968 26.7496C77.1037 26.7634 77.0071 26.8617 77.0036 26.9566Z" fill="#B83A31"/>
<path d="M91.689 34.3735C91.5528 34.489 91.4579 34.6995 91.282 34.7184C90.2143 34.8357 89.1362 34.7564 88.0634 34.7754L87.3596 33.1661C87.0768 33.085 86.8042 32.9436 86.511 32.9246C85.6503 32.8711 84.7862 32.9453 83.9237 32.9557C83.596 33.5421 83.2683 34.1303 82.9388 34.7184C82.5783 34.7305 82.2161 34.7409 81.8539 34.7529L81.6814 34.5494C82.9457 31.4136 84.2118 28.2761 85.4761 25.1403C86.3501 25.1696 87.2242 25.2007 88.0982 25.2317L88.0996 25.2317C89.2966 28.2796 90.492 31.3257 91.689 34.3735Z" fill="#B83A31"/>
<path d="M116.106 31.0963L115.894 34.7184C114.838 34.7409 113.783 34.8375 112.729 34.7874C112.58 34.7788 112.48 34.627 112.355 34.546C112.363 31.4981 112.37 28.452 112.377 25.4042C112.551 25.3421 112.717 25.2214 112.901 25.2179C115.43 25.1714 117.96 25.2438 120.491 25.2576V26.5185C119.111 26.5461 117.729 26.5202 116.351 26.603C116.247 26.6099 116.182 26.7237 116.099 26.7841C116.125 27.6655 116.153 28.5486 116.179 29.43C117.386 29.4352 118.597 29.3541 119.801 29.4438C119.927 29.4525 120.032 29.5939 120.059 29.7164C120.125 29.9958 120.123 30.2976 120.063 30.5788C120.032 30.7289 119.889 30.8289 119.801 30.9531C118.569 31.0014 117.338 31.048 116.106 31.0963Z" fill="#B83A31"/>
<path d="M132.173 34.3735C132.156 34.5218 131.985 34.6029 131.892 34.7184H123.406C123.411 31.5861 123.418 28.4538 123.423 25.3214C126.126 25.318 128.827 25.3163 131.53 25.3128V26.4857C130.034 26.553 128.541 26.622 127.045 26.6893V29.0333C128.252 29.0488 129.463 28.9764 130.667 29.0799C130.816 29.092 130.952 29.2317 131.005 29.3714C131.086 29.587 131.105 29.8406 131.042 30.0613C130.985 30.258 130.791 30.3873 130.667 30.5495L130.644 30.5506C129.444 30.6054 128.245 30.6602 127.045 30.7168C127.024 31.2446 126.948 31.7758 126.983 32.3037C127.007 32.6917 127.14 33.0643 127.218 33.4438C128.827 33.4283 130.438 33.411 132.047 33.3955C132.089 33.7215 132.213 34.0475 132.173 34.3735Z" fill="#B83A31"/>
<path d="M144.294 25.2352C144.297 28.3969 144.299 31.5568 144.302 34.7184H140.62C139.2 32.8642 137.779 31.0117 136.359 29.1575C136.347 30.9531 136.333 32.7504 136.321 34.546C136.22 34.6167 136.137 34.7409 136.014 34.7564C135.65 34.7995 135.281 34.7305 134.916 34.7184L134.807 25.3594L138.429 25.3076C139.925 27.1739 141.418 29.0402 142.914 30.9065C142.95 29.073 142.984 27.2378 143.021 25.4042C143.445 25.3473 143.869 25.2921 144.294 25.2352Z" fill="#B83A31"/>
<path d="M164.138 34.3735C164.135 34.527 163.936 34.6029 163.835 34.7184C162.725 34.7357 161.615 34.8237 160.507 34.7702C160.397 34.765 160.343 34.6201 160.261 34.546C160.252 31.5568 160.157 28.5659 160.236 25.5767C160.24 25.4301 160.418 25.3473 160.507 25.2335C161.599 25.2162 162.693 25.13 163.784 25.1817C163.917 25.1886 164.007 25.3301 164.117 25.4042C164.124 28.3934 164.229 31.3843 164.138 34.3735Z" fill="#B83A31"/>
<path d="M176.755 25.2317C176.757 28.3934 176.757 31.5568 176.759 34.7184C175.539 34.7184 174.318 34.7167 173.099 34.7167C171.662 32.8625 170.223 31.0083 168.787 29.1541C168.788 30.9514 168.792 32.7487 168.793 34.546C168.676 34.6167 168.578 34.7426 168.442 34.7581C168.095 34.8012 167.743 34.7322 167.393 34.7184L167.253 25.4042L170.856 25.2645C172.352 27.1463 173.846 29.0281 175.341 30.9082C175.4 30.8565 175.458 30.803 175.517 30.7513L175.512 25.4042C175.926 25.3473 176.34 25.2887 176.755 25.2317Z" fill="#B83A31"/>
</svg>
